<svg width="60" height="60" viewBox="0 0 60 60" fill="none" xmlns="http://www.w3.org/2000/svg">
<rect width="60" height="60" rx="30" fill="#544D54"/>
<g clip-path="url(#clip0_56_369)">
<path d="M36.6406 17.5H23.3594C20.1233 17.5 17.5 20.1233 17.5 23.3594V36.6406C17.5 39.8767 20.1233 42.5 23.3594 42.5H36.6406C39.8767 42.5 42.5 39.8767 42.5 36.6406V23.3594C42.5 20.1233 39.8767 17.5 36.6406 17.5Z" fill="#0277BD"/>
<path d="M22.7493 27.5245L23.0288 30.6438H30.0094V27.5245H22.7493ZM30.0093 21.2109H22.1875L22.4711 24.3303H30.0093V21.2109ZM30.0093 38.8712V35.6258L29.9956 35.6294L26.5216 34.6914L26.2995 32.2035H23.1682L23.6052 37.1014L29.9949 38.8752L30.0093 38.8712Z" fill="#EBEBEB"/>
<path d="M33.8392 30.6438L33.4771 34.6894L29.998 35.6284V38.8736L36.3929 37.1014L36.4397 36.5743L37.1728 28.3622L37.2488 27.5245L37.812 21.2109H29.998V24.3303H34.3935L34.1097 27.5245H29.998V30.6438H33.8392Z" fill="white"/>
</g>
<defs>
<clipPath id="clip0_56_369">
<rect width="25" height="25" fill="white" transform="translate(17.5 17.5)"/>
</clipPath>
</defs>
</svg>
