<svg width="275" height="198" viewBox="0 0 275 198" fill="none" xmlns="http://www.w3.org/2000/svg">
<mask id="mask0_64_915" style="mask-type:luminance" maskUnits="userSpaceOnUse" x="0" y="0" width="275" height="198">
<path d="M0.948242 0H274.051V198H0.948242V0Z" fill="white"/>
</mask>
<g mask="url(#mask0_64_915)">
<path d="M15.0232 0.00708008H259.977C260.894 0.00708008 261.797 0.0924238 262.693 0.277338C263.589 0.455139 264.457 0.718284 265.296 1.06678C266.143 1.41527 266.946 1.84199 267.7 2.35406C268.461 2.85901 269.165 3.43509 269.805 4.08229C270.453 4.72948 271.029 5.43358 271.534 6.19457C272.046 6.95555 272.472 7.75922 272.821 8.59844C273.169 9.44478 273.433 10.3196 273.61 11.2157C273.788 12.1118 273.881 13.015 273.881 13.9325V184.067C273.881 184.984 273.788 185.888 273.61 186.784C273.433 187.68 273.169 188.555 272.821 189.401C272.472 190.24 272.046 191.044 271.534 191.805C271.029 192.566 270.453 193.27 269.805 193.917C269.165 194.564 268.461 195.14 267.7 195.645C266.946 196.158 266.143 196.584 265.296 196.933C264.457 197.281 263.589 197.544 262.693 197.722C261.797 197.907 260.894 197.992 259.977 197.992H15.0232C14.1057 197.992 13.2025 197.907 12.3064 197.722C11.4103 197.544 10.5426 197.281 9.70339 196.933C8.85705 196.584 8.05339 196.158 7.29951 195.645C6.53852 195.14 5.83443 194.564 5.19435 193.917C4.54715 193.27 3.97107 192.566 3.46612 191.805C2.95405 191.044 2.52733 190.24 2.17884 189.401C1.83035 188.555 1.5672 187.68 1.3894 186.784C1.2116 185.888 1.11914 184.984 1.11914 184.067V13.9325C1.11914 13.015 1.2116 12.1118 1.3894 11.2157C1.5672 10.3196 1.83035 9.44478 2.17884 8.59844C2.52733 7.75922 2.95405 6.95555 3.46612 6.19457C3.97107 5.43358 4.54715 4.72948 5.19435 4.08229C5.83443 3.43509 6.53852 2.85901 7.29951 2.35406C8.05339 1.84199 8.85705 1.41527 9.70339 1.06678C10.5426 0.718284 11.4103 0.455139 12.3064 0.277338C13.2025 0.0924238 14.1057 0.00708008 15.0232 0.00708008Z" fill="#A69CA6"/>
</g>
<mask id="mask1_64_915" style="mask-type:luminance" maskUnits="userSpaceOnUse" x="0" y="0" width="275" height="31">
<path d="M0.948242 0H274.051V30.5534H0.948242V0Z" fill="white"/>
</mask>
<g mask="url(#mask1_64_915)">
<path d="M14.7743 0.00708008H260.218C267.757 0.00708008 273.881 6.13767 273.881 13.6836V29.387H1.11914V13.6836C1.11914 6.13767 7.24262 0.00708008 14.7743 0.00708008Z" fill="#CCC4CC"/>
</g>
<path d="M14.3969 10.6472C14.3969 11.1024 14.3116 11.5362 14.1409 11.9558C13.9631 12.3754 13.7213 12.7453 13.4012 13.0653C13.0812 13.3854 12.7114 13.6343 12.2917 13.805C11.8721 13.9828 11.4383 14.0681 10.9831 14.0681C10.5279 14.0681 10.0941 13.9828 9.6745 13.805C9.262 13.6343 8.89218 13.3854 8.57214 13.0653C8.25209 12.7453 8.00317 12.3754 7.83248 11.9558C7.65468 11.5362 7.56934 11.1024 7.56934 10.6472C7.56934 10.192 7.65468 9.75821 7.83248 9.3386C8.00317 8.91899 8.25209 8.54916 8.57214 8.22912C8.89218 7.90908 9.262 7.66015 9.6745 7.48946C10.0941 7.31166 10.5279 7.22632 10.9831 7.22632C11.4383 7.22632 11.8721 7.31166 12.2917 7.48946C12.7114 7.66015 13.0812 7.90908 13.4012 8.22912C13.7213 8.54916 13.9631 8.91899 14.1409 9.3386C14.3116 9.75821 14.3969 10.192 14.3969 10.6472Z" fill="#544D54"/>
<path d="M25.0229 10.6472C25.0229 11.1024 24.9304 11.5362 24.7597 11.9558C24.589 12.3754 24.3401 12.7453 24.0201 13.0653C23.7 13.3854 23.3302 13.6343 22.9106 13.805C22.4981 13.9828 22.0572 14.0681 21.6091 14.0681C21.1539 14.0681 20.7201 13.9828 20.3005 13.805C19.8809 13.6343 19.511 13.3854 19.191 13.0653C18.871 12.7453 18.622 12.3754 18.4513 11.9558C18.2807 11.5362 18.1953 11.1024 18.1953 10.6472C18.1953 10.192 18.2807 9.75821 18.4513 9.3386C18.622 8.91899 18.871 8.54916 19.191 8.22912C19.511 7.90908 19.8809 7.66015 20.3005 7.48946C20.7201 7.31166 21.1539 7.22632 21.6091 7.22632C22.0572 7.22632 22.4981 7.31166 22.9106 7.48946C23.3302 7.66015 23.7 7.90908 24.0201 8.22912C24.3401 8.54916 24.589 8.91899 24.7597 9.3386C24.9304 9.75821 25.0229 10.192 25.0229 10.6472Z" fill="#544D54"/>
<path d="M35.641 10.6472C35.641 11.1024 35.5557 11.5362 35.385 11.9558C35.2072 12.3754 34.9654 12.7453 34.6454 13.0653C34.3253 13.3854 33.9555 13.6343 33.5359 13.805C33.1163 13.9828 32.6824 14.0681 32.2273 14.0681C31.7721 14.0681 31.3383 13.9828 30.9186 13.805C30.5061 13.6343 30.1363 13.3854 29.8163 13.0653C29.4962 12.7453 29.2473 12.3754 29.0766 11.9558C28.8988 11.5362 28.8135 11.1024 28.8135 10.6472C28.8135 10.192 28.8988 9.75821 29.0766 9.3386C29.2473 8.91899 29.4962 8.54916 29.8163 8.22912C30.1363 7.90908 30.5061 7.66015 30.9186 7.48946C31.3383 7.31166 31.7721 7.22632 32.2273 7.22632C32.6824 7.22632 33.1163 7.31166 33.5359 7.48946C33.9555 7.66015 34.3253 7.90908 34.6454 8.22912C34.9654 8.54916 35.2072 8.91899 35.385 9.3386C35.5557 9.75821 35.641 10.192 35.641 10.6472Z" fill="#544D54"/>
<path d="M92.8007 8.86133H182.192C182.505 8.86133 182.804 8.92534 183.095 9.04624C183.387 9.16715 183.643 9.33784 183.863 9.55831C184.084 9.77878 184.255 10.0348 184.375 10.3264C184.496 10.6109 184.553 10.9167 184.553 11.2296V16.3148C184.553 16.6277 184.496 16.9264 184.375 17.218C184.255 17.5096 184.084 17.7656 183.863 17.9861C183.643 18.2066 183.387 18.3773 183.095 18.4982C182.804 18.6191 182.505 18.676 182.192 18.676H92.8007C92.4877 18.676 92.189 18.6191 91.8974 18.4982C91.6058 18.3773 91.3498 18.2066 91.1293 17.9861C90.9088 17.7656 90.7382 17.5096 90.6173 17.218C90.4964 16.9264 90.4395 16.6277 90.4395 16.3148V11.2296C90.4395 10.9167 90.4964 10.6109 90.6173 10.3264C90.7382 10.0348 90.9088 9.77878 91.1293 9.55831C91.3498 9.33784 91.6058 9.16715 91.8974 9.04624C92.189 8.92534 92.4877 8.86133 92.8007 8.86133Z" fill="#A69CA6"/>
<mask id="mask2_64_915" style="mask-type:luminance" maskUnits="userSpaceOnUse" x="0" y="28" width="73" height="170">
<path d="M0.948242 28.7332H72.8653V198H0.948242V28.7332Z" fill="white"/>
</mask>
<g mask="url(#mask2_64_915)">
<path d="M1.11914 29.3875H71.3507V197.993H14.7743C7.24262 197.993 1.11914 191.862 1.11914 184.316V29.3875Z" fill="#CCC4CC"/>
</g>
<path d="M92.7153 79.5132H253.704C254.002 79.5132 254.294 79.5701 254.571 79.691C254.849 79.8048 255.098 79.9684 255.311 80.1817C255.524 80.3951 255.688 80.644 255.802 80.9214C255.923 81.1987 255.98 81.4903 255.98 81.7962V184.693C255.98 184.992 255.923 185.284 255.802 185.568C255.688 185.845 255.524 186.094 255.311 186.308C255.098 186.521 254.849 186.685 254.571 186.799C254.294 186.912 254.002 186.976 253.704 186.976H92.7153C92.4166 186.976 92.125 186.912 91.8476 186.799C91.5632 186.685 91.3213 186.521 91.108 186.308C90.8946 186.094 90.731 185.845 90.6101 185.568C90.4963 185.284 90.4395 184.992 90.4395 184.693V81.7962C90.4395 81.4903 90.4963 81.1987 90.6101 80.9214C90.731 80.644 90.8946 80.3951 91.108 80.1817C91.3213 79.9684 91.5632 79.8048 91.8476 79.691C92.125 79.5701 92.4166 79.5132 92.7153 79.5132Z" fill="#544D54"/>
<path d="M94.4009 44.031H252.011C252.537 44.031 253.042 44.1306 253.533 44.3297C254.017 44.536 254.443 44.8204 254.813 45.1903C255.19 45.5672 255.475 45.9939 255.674 46.4776C255.873 46.9683 255.98 47.4732 255.98 47.9995V70.6159C255.98 71.1421 255.873 71.6471 255.674 72.1378C255.475 72.6215 255.19 73.0553 254.813 73.4251C254.443 73.7949 254.017 74.0865 253.533 74.2857C253.042 74.4848 252.537 74.5844 252.011 74.5844H94.4009C93.8746 74.5844 93.3696 74.4848 92.886 74.2857C92.4024 74.0865 91.9757 73.7949 91.5987 73.4251C91.2289 73.0553 90.9444 72.6215 90.7382 72.1378C90.539 71.6471 90.4395 71.1421 90.4395 70.6159V47.9995C90.4395 47.4732 90.539 46.9683 90.7382 46.4776C90.9444 45.9939 91.2289 45.5672 91.5987 45.1903C91.9757 44.8204 92.4024 44.536 92.886 44.3297C93.3696 44.1306 93.8746 44.031 94.4009 44.031Z" fill="#544D54"/>
<path d="M12.4973 42.7644H20.0858C20.5055 42.7644 20.8611 42.9138 21.1598 43.2125C21.4585 43.5041 21.6078 43.8668 21.6078 44.2864V51.8821C21.6078 52.3017 21.4585 52.6644 21.1598 52.956C20.8611 53.2547 20.5055 53.404 20.0858 53.404H12.4973C12.0848 53.404 11.7221 53.2547 11.4305 52.956C11.1318 52.6644 10.9824 52.3017 10.9824 51.8821V44.2864C10.9824 43.8668 11.1318 43.5041 11.4305 43.2125C11.7221 42.9138 12.0848 42.7644 12.4973 42.7644Z" fill="#544D54"/>
<path d="M28.436 44.031H59.658C60.0776 44.031 60.4332 44.1804 60.7319 44.472C61.0306 44.7707 61.1799 45.1263 61.1799 45.5459V50.6239C61.1799 51.0435 61.0306 51.3991 60.7319 51.6978C60.4332 51.9894 60.0776 52.1387 59.658 52.1387H28.436C28.0164 52.1387 27.6608 51.9894 27.3621 51.6978C27.0634 51.3991 26.9141 51.0435 26.9141 50.6239V45.5459C26.9141 45.1263 27.0634 44.7707 27.3621 44.472C27.6608 44.1804 28.0164 44.031 28.436 44.031Z" fill="#544D54"/>
<path d="M12.4973 62.5364H20.0858C20.5055 62.5364 20.8611 62.6857 21.1598 62.9844C21.4585 63.2831 21.6078 63.6387 21.6078 64.0584V71.6611C21.6078 72.0808 21.4585 72.4364 21.1598 72.7351C20.8611 73.0338 20.5055 73.176 20.0858 73.176H12.4973C12.0848 73.176 11.7221 73.0338 11.4305 72.7351C11.1318 72.4364 10.9824 72.0808 10.9824 71.6611V64.0584C10.9824 63.6387 11.1318 63.2831 11.4305 62.9844C11.7221 62.6857 12.0848 62.5364 12.4973 62.5364Z" fill="#544D54"/>
<path d="M28.436 63.7952H59.658C60.0776 63.7952 60.4332 63.9445 60.7319 64.2432C61.0306 64.5348 61.1799 64.8975 61.1799 65.3171V70.388C61.1799 70.8077 61.0306 71.1633 60.7319 71.462C60.4332 71.7607 60.0776 71.91 59.658 71.91H28.436C28.0164 71.91 27.6608 71.7607 27.3621 71.462C27.0634 71.1633 26.9141 70.8077 26.9141 70.388V65.3171C26.9141 64.8975 27.0634 64.5348 27.3621 64.2432C27.6608 63.9445 28.0164 63.7952 28.436 63.7952Z" fill="#544D54"/>
<path d="M12.4973 82.3081H20.0858C20.5055 82.3081 20.8611 82.4575 21.1598 82.7491C21.4585 83.0478 21.6078 83.4034 21.6078 83.823V91.4258C21.6078 91.8454 21.4585 92.201 21.1598 92.4997C20.8611 92.7984 20.5055 92.9477 20.0858 92.9477H12.4973C12.0848 92.9477 11.7221 92.7984 11.4305 92.4997C11.1318 92.201 10.9824 91.8454 10.9824 91.4258V83.823C10.9824 83.4034 11.1318 83.0478 11.4305 82.7491C11.7221 82.4575 12.0848 82.3081 12.4973 82.3081Z" fill="#544D54"/>
<path d="M28.436 83.5671H59.658C60.0776 83.5671 60.4332 83.7165 60.7319 84.0152C61.0306 84.3139 61.1799 84.6695 61.1799 85.0891V90.16C61.1799 90.5796 61.0306 90.9423 60.7319 91.2339C60.4332 91.5326 60.0776 91.682 59.658 91.682H28.436C28.0164 91.682 27.6608 91.5326 27.3621 91.2339C27.0634 90.9423 26.9141 90.5796 26.9141 90.16V85.0891C26.9141 84.6695 27.0634 84.3139 27.3621 84.0152C27.6608 83.7165 28.0164 83.5671 28.436 83.5671Z" fill="#544D54"/>
<path d="M12.4973 102.072H20.0858C20.5055 102.072 20.8611 102.222 21.1598 102.52C21.4585 102.812 21.6078 103.175 21.6078 103.594V111.19C21.6078 111.61 21.4585 111.972 21.1598 112.271C20.8611 112.563 20.5055 112.712 20.0858 112.712H12.4973C12.0848 112.712 11.7221 112.563 11.4305 112.271C11.1318 111.972 10.9824 111.61 10.9824 111.19V103.594C10.9824 103.175 11.1318 102.812 11.4305 102.52C11.7221 102.222 12.0848 102.072 12.4973 102.072Z" fill="#544D54"/>
<path d="M28.436 103.338H59.658C60.0776 103.338 60.4332 103.488 60.7319 103.779C61.0306 104.078 61.1799 104.441 61.1799 104.86V109.931C61.1799 110.351 61.0306 110.706 60.7319 111.005C60.4332 111.297 60.0776 111.446 59.658 111.446H28.436C28.0164 111.446 27.6608 111.297 27.3621 111.005C27.0634 110.706 26.9141 110.351 26.9141 109.931V104.86C26.9141 104.441 27.0634 104.078 27.3621 103.779C27.6608 103.488 28.0164 103.338 28.436 103.338Z" fill="#544D54"/>
<path d="M12.4973 121.837H20.0858C20.5055 121.837 20.8611 121.986 21.1598 122.285C21.4585 122.584 21.6078 122.939 21.6078 123.359V130.962C21.6078 131.381 21.4585 131.737 21.1598 132.036C20.8611 132.334 20.5055 132.484 20.0858 132.484H12.4973C12.0848 132.484 11.7221 132.334 11.4305 132.036C11.1318 131.737 10.9824 131.381 10.9824 130.962V123.359C10.9824 122.939 11.1318 122.584 11.4305 122.285C11.7221 121.986 12.0848 121.837 12.4973 121.837Z" fill="#544D54"/>
<path d="M28.436 123.102H59.658C60.0776 123.102 60.4332 123.251 60.7319 123.55C61.0306 123.849 61.1799 124.204 61.1799 124.624V129.695C61.1799 130.115 61.0306 130.47 60.7319 130.769C60.4332 131.068 60.0776 131.217 59.658 131.217H28.436C28.0164 131.217 27.6608 131.068 27.3621 130.769C27.0634 130.47 26.9141 130.115 26.9141 129.695V124.624C26.9141 124.204 27.0634 123.849 27.3621 123.55C27.6608 123.251 28.0164 123.102 28.436 123.102Z" fill="#544D54"/>
<path d="M99.5925 88.5525H128.162C128.418 88.5525 128.667 88.6023 128.908 88.7018C129.15 88.8014 129.356 88.9365 129.541 89.1215C129.726 89.3064 129.869 89.5197 129.968 89.7615C130.068 89.9962 130.117 90.2523 130.117 90.5083C130.117 90.7715 130.068 91.0204 129.968 91.2551C129.869 91.4969 129.726 91.7102 129.541 91.8952C129.356 92.0801 129.15 92.2223 128.908 92.3219C128.667 92.4214 128.418 92.4712 128.162 92.4712H99.5925C99.3294 92.4712 99.0805 92.4214 98.8387 92.3219C98.604 92.2223 98.3906 92.0801 98.2057 91.8952C98.0208 91.7102 97.8856 91.4969 97.7861 91.2551C97.6865 91.0204 97.6367 90.7715 97.6367 90.5083C97.6367 90.2523 97.6865 89.9962 97.7861 89.7615C97.8856 89.5197 98.0208 89.3064 98.2057 89.1215C98.3906 88.9365 98.604 88.8014 98.8387 88.7018C99.0805 88.6023 99.3294 88.5525 99.5925 88.5525Z" fill="#CCC4CC"/>
<path d="M99.5925 49.2505H128.162C128.418 49.2505 128.667 49.3003 128.908 49.3998C129.15 49.4994 129.356 49.6417 129.541 49.8266C129.726 50.0044 129.869 50.2177 129.968 50.4595C130.068 50.7013 130.117 50.9503 130.117 51.2063C130.117 51.4694 130.068 51.7184 129.968 51.9602C129.869 52.202 129.726 52.4082 129.541 52.5932C129.356 52.7781 129.15 52.9203 128.908 53.0199C128.667 53.1194 128.418 53.1692 128.162 53.1692H99.5925C99.3294 53.1692 99.0805 53.1194 98.8387 53.0199C98.604 52.9203 98.3906 52.7781 98.2057 52.5932C98.0208 52.4082 97.8856 52.202 97.7861 51.9602C97.6865 51.7184 97.6367 51.4694 97.6367 51.2063C97.6367 50.9503 97.6865 50.7013 97.7861 50.4595C97.8856 50.2177 98.0208 50.0044 98.2057 49.8266C98.3906 49.6417 98.604 49.4994 98.8387 49.3998C99.0805 49.3003 99.3294 49.2505 99.5925 49.2505Z" fill="#CCC4CC"/>
<path d="M99.5925 142.64H128.162C128.418 142.64 128.667 142.689 128.908 142.789C129.15 142.889 129.356 143.031 129.541 143.216C129.726 143.401 129.869 143.614 129.968 143.849C130.068 144.091 130.117 144.339 130.117 144.603C130.117 144.859 130.068 145.115 129.968 145.349C129.869 145.591 129.726 145.805 129.541 145.989C129.356 146.167 129.15 146.309 128.908 146.409C128.667 146.509 128.418 146.558 128.162 146.558H99.5925C99.3294 146.558 99.0805 146.509 98.8387 146.409C98.604 146.309 98.3906 146.167 98.2057 145.989C98.0208 145.805 97.8856 145.591 97.7861 145.349C97.6865 145.115 97.6367 144.859 97.6367 144.603C97.6367 144.339 97.6865 144.091 97.7861 143.849C97.8856 143.614 98.0208 143.401 98.2057 143.216C98.3906 143.031 98.604 142.889 98.8387 142.789C99.0805 142.689 99.3294 142.64 99.5925 142.64Z" fill="#CCC4CC"/>
<path d="M249.515 133.621H96.9192C96.7058 133.621 96.5352 133.451 96.5352 133.237C96.5352 133.031 96.7058 132.86 96.9192 132.86H249.515C249.722 132.86 249.892 133.031 249.892 133.237C249.892 133.451 249.722 133.621 249.515 133.621Z" fill="#A69CA6"/>
</svg>
