<svg width="290" height="121" viewBox="0 0 290 121" fill="none" xmlns="http://www.w3.org/2000/svg">
<rect y="0.5" width="120" height="120" rx="60" fill="#3B353B"/>
<g clip-path="url(#clip0_65_947)">
<path d="M51.3281 90.9688C56.9062 90.9688 61.4062 86.4688 61.4062 80.8906V70.8125H51.3281C45.75 70.8125 41.25 75.3125 41.25 80.8906C41.25 86.4688 45.75 90.9688 51.3281 90.9688Z" fill="#0ACF83"/>
<path d="M41.25 60.7344C41.25 55.1562 45.75 50.6562 51.3281 50.6562H61.4062V70.8125H51.3281C45.75 70.8125 41.25 66.3125 41.25 60.7344Z" fill="#A259FF"/>
<path d="M41.25 40.5781C41.25 35 45.75 30.5 51.3281 30.5H61.4062V50.6562H51.3281C45.75 50.6562 41.25 46.1562 41.25 40.5781Z" fill="#F24E1E"/>
<path d="M61.4062 30.5H71.4844C77.0625 30.5 81.5625 35 81.5625 40.5781C81.5625 46.1562 77.0625 50.6562 71.4844 50.6562H61.4062V30.5Z" fill="#FF7262"/>
<path d="M81.5625 60.7344C81.5625 66.3125 77.0625 70.8125 71.4844 70.8125C65.9062 70.8125 61.4062 66.3125 61.4062 60.7344C61.4062 55.1562 65.9062 50.6562 71.4844 50.6562C77.0625 50.6562 81.5625 55.1562 81.5625 60.7344Z" fill="#1ABCFE"/>
</g>
<rect x="120" y="60" width="50" height="1" fill="#A69CA6"/>
<rect x="170" y="0.5" width="120" height="120" rx="60" fill="#3B353B"/>
<g clip-path="url(#clip1_65_947)">
<path d="M236.55 37.155C237.024 37.2877 237.468 37.5127 237.855 37.8171C238.243 38.1214 238.567 38.4991 238.808 38.9287C239.05 39.3582 239.204 39.8311 239.263 40.3203C239.321 40.8096 239.283 41.3056 239.15 41.78L228.072 81.2475C227.804 82.2052 227.166 83.0171 226.299 83.5045C225.431 83.9918 224.406 84.1148 223.448 83.8462C222.491 83.5777 221.679 82.9397 221.191 82.0726C220.704 81.2055 220.581 80.1802 220.85 79.2225L231.927 39.75C232.06 39.2757 232.285 38.8322 232.59 38.445C232.894 38.0577 233.272 37.7343 233.702 37.4931C234.131 37.2518 234.604 37.0976 235.093 37.0392C235.582 36.9807 236.078 37.0192 236.552 37.1525L236.55 37.155ZM218.9 47.2425C219.602 47.9456 219.996 48.8987 219.996 49.8925C219.996 50.8862 219.602 51.8394 218.9 52.5425L210.95 60.5L218.905 68.455C219.608 69.1585 220.003 70.1125 220.003 71.1071C220.002 72.1018 219.607 73.0556 218.903 73.7587C218.2 74.4619 217.246 74.8568 216.251 74.8565C215.257 74.8563 214.303 74.461 213.6 73.7575L202.992 63.15C202.29 62.4469 201.896 61.4937 201.896 60.5C201.896 59.5062 202.29 58.5531 202.992 57.85L213.597 47.2425C213.945 46.894 214.359 46.6176 214.814 46.429C215.269 46.2404 215.757 46.1433 216.25 46.1433C216.742 46.1433 217.23 46.2404 217.685 46.429C218.14 46.6176 218.551 46.894 218.9 47.2425ZM241.1 52.5425C240.731 52.1992 240.436 51.7852 240.231 51.3252C240.026 50.8652 239.916 50.3686 239.907 49.8651C239.898 49.3616 239.99 48.8614 240.179 48.3945C240.368 47.9276 240.648 47.5034 241.005 47.1473C241.361 46.7912 241.785 46.5105 242.252 46.3219C242.719 46.1333 243.219 46.0406 243.722 46.0495C244.226 46.0584 244.722 46.1686 245.182 46.3736C245.642 46.5785 246.056 46.8741 246.4 47.2425L257.007 57.8475C257.71 58.5507 258.105 59.5044 258.105 60.4987C258.105 61.4931 257.71 62.4468 257.007 63.15L246.402 73.7575C246.054 74.1058 245.641 74.3822 245.186 74.5707C244.731 74.7593 244.243 74.8564 243.751 74.8565C243.258 74.8567 242.77 74.7598 242.315 74.5714C241.86 74.3831 241.447 74.1069 241.098 73.7587C240.75 73.4106 240.474 72.9972 240.285 72.5422C240.097 72.0873 240 71.5996 239.999 71.1071C239.999 70.6146 240.096 70.1269 240.285 69.6719C240.473 69.2168 240.749 68.8033 241.097 68.455L249.052 60.5L241.1 52.5425Z" fill="#FF99FF"/>
</g>
<defs>
<clipPath id="clip0_65_947">
<rect width="60" height="60" fill="white" transform="translate(30 30.5)"/>
</clipPath>
<clipPath id="clip1_65_947">
<rect width="60" height="60" fill="white" transform="translate(200 30.5)"/>
</clipPath>
</defs>
</svg>
