<svg width="21" height="22" viewBox="0 0 21 22" fill="none" xmlns="http://www.w3.org/2000/svg">
<path d="M13.8987 1.59082C12.9485 0.564941 11.6214 0 10.1565 0C8.68387 0 7.35233 0.561523 6.40653 1.58105C5.45047 2.61182 4.98465 4.0127 5.09403 5.52539C5.31083 8.50977 7.58182 10.9375 10.1565 10.9375C12.7312 10.9375 14.9983 8.51025 15.2185 5.52637C15.3294 4.02734 14.8606 2.62939 13.8987 1.59082ZM18.7503 21.875H1.56278C1.33781 21.8779 1.11502 21.8307 0.910613 21.7367C0.706208 21.6426 0.525329 21.5043 0.381139 21.3315C0.0637558 20.9521 -0.0641739 20.4341 0.0305527 19.9102C0.442662 17.624 1.7288 15.7036 3.75028 14.3555C5.54618 13.1587 7.82108 12.5 10.1565 12.5C12.492 12.5 14.7669 13.1592 16.5628 14.3555C18.5843 15.7031 19.8704 17.6235 20.2825 19.9097C20.3772 20.4336 20.2493 20.9517 19.9319 21.3311C19.7878 21.5039 19.6069 21.6423 19.4025 21.7364C19.1981 21.8305 18.9753 21.8779 18.7503 21.875Z" fill="url(#paint0_linear_100_2669)"/>
<defs>
<linearGradient id="paint0_linear_100_2669" x1="10.1565" y1="0" x2="10.1565" y2="21.8751" gradientUnits="userSpaceOnUse">
<stop stop-color="#FF99FF"/>
<stop offset="0.538462" stop-color="#995C99"/>
</linearGradient>
</defs>
</svg>
