<svg width="47" height="47" viewBox="0 0 47 47" fill="none" xmlns="http://www.w3.org/2000/svg">
<path d="M39.781 44.2428L20.5885 44.2505C19.1564 44.2505 17.9848 42.9467 17.9848 41.3532L17.9828 40.5897" fill="#FF99FF"/>
<path d="M39.781 44.2428L20.5885 44.2505C19.1564 44.2505 17.9848 42.9467 17.9848 41.3532L17.9828 40.5897" stroke="#3D6CB4" stroke-miterlimit="10" stroke-linecap="round" stroke-linejoin="round"/>
<path d="M17.9844 25.707V3.89727C17.9844 2.30373 19.1561 1 20.5881 1H43.3963C44.8284 1 46 2.30373 46 3.89727V41.3533C46 42.9468 44.8284 44.2505 43.3963 44.2505H42.2885" fill="#FF99FF"/>
<path d="M17.9844 25.707V3.89727C17.9844 2.30373 19.1561 1 20.5881 1H43.3963C44.8284 1 46 2.30373 46 3.89727V41.3533C46 42.9468 44.8284 44.2505 43.3963 44.2505H42.2885" stroke="#3D6CB4" stroke-miterlimit="10" stroke-linecap="round" stroke-linejoin="round"/>
<path opacity="0.3" d="M17.9844 5.91631V3.89727C17.9844 2.30373 19.1561 1 20.5881 1H43.3963C44.8284 1 46 2.30373 46 3.89727V5.91631H17.9844Z" fill="#FF99FF"/>
<path d="M17.9844 5.91631V3.89727C17.9844 2.30373 19.1561 1 20.5881 1H43.3963C44.8284 1 46 2.30373 46 3.89727V5.91631H17.9844Z" fill="#FF99FF" stroke="#3D6CB4" stroke-miterlimit="10" stroke-linecap="round" stroke-linejoin="round"/>
<path d="M21.0991 11.371H41.5901" stroke="#3D6CB4" stroke-miterlimit="10" stroke-linecap="round" stroke-linejoin="round"/>
<path d="M21.0991 20.933H35.3106" stroke="#3D6CB4" stroke-miterlimit="10" stroke-linecap="round" stroke-linejoin="round"/>
<path d="M21.0991 16.5198H37.2936" stroke="#3D6CB4" stroke-miterlimit="10" stroke-linecap="round" stroke-linejoin="round"/>
<path d="M42.2895 45.9999H39.7813V23.6746L41.0356 20.9454L42.2895 23.6746V45.9999Z" fill="#FF99FF" stroke="#3D6CB4" stroke-miterlimit="10" stroke-linecap="round" stroke-linejoin="round"/>
<path d="M39.7813 24.167H42.2895" stroke="#3D6CB4" stroke-miterlimit="10" stroke-linecap="round" stroke-linejoin="round"/>
<path d="M39.7813 42.8809H42.2895" stroke="#3D6CB4" stroke-miterlimit="10" stroke-linecap="round" stroke-linejoin="round"/>
<path d="M39.7813 40.911H42.2895" stroke="#3D6CB4" stroke-miterlimit="10" stroke-linecap="round" stroke-linejoin="round"/>
<path opacity="0.3" d="M42.2892 40.9111H39.7813V42.8809H42.2892V40.9111Z" fill="#FF99FF"/>
<path d="M39.7813 24.167H42.2895" stroke="#3D6CB4" stroke-miterlimit="10" stroke-linecap="round" stroke-linejoin="round"/>
<path d="M42.2895 45.9999H39.7813V23.6746L41.0356 20.9454L42.2895 23.6746V45.9999Z" fill="#FF99FF" stroke="#3D6CB4" stroke-miterlimit="10" stroke-linecap="round" stroke-linejoin="round"/>
<path d="M39.7813 42.8809H42.2895" stroke="#3D6CB4" stroke-miterlimit="10" stroke-linecap="round" stroke-linejoin="round"/>
<path d="M39.7813 40.911H42.2895" stroke="#3D6CB4" stroke-miterlimit="10" stroke-linecap="round" stroke-linejoin="round"/>
<path opacity="0.3" d="M42.2895 24.1671H39.7813V23.6746L41.0356 20.9454L42.2895 23.6746V24.1671Z" fill="#FF99FF"/>
<path d="M39.7813 24.167H42.2895" stroke="#3D6CB4" stroke-miterlimit="10" stroke-linecap="round" stroke-linejoin="round"/>
<path d="M39.7813 42.8809H42.2895" stroke="#3D6CB4" stroke-miterlimit="10" stroke-linecap="round" stroke-linejoin="round"/>
<path d="M39.7813 40.911H42.2895" stroke="#3D6CB4" stroke-miterlimit="10" stroke-linecap="round" stroke-linejoin="round"/>
<path d="M12.5385 16.7334V19.4641" stroke="#3D6CB4" stroke-miterlimit="10" stroke-linecap="round" stroke-linejoin="round"/>
<path d="M13.7653 18.0989H11.3116" stroke="#3D6CB4" stroke-miterlimit="10" stroke-linecap="round" stroke-linejoin="round"/>
<path d="M8.6554 5.57129V10.1323" stroke="#3D6CB4" stroke-miterlimit="10" stroke-linecap="round" stroke-linejoin="round"/>
<path d="M10.7048 7.85181H6.60596" stroke="#3D6CB4" stroke-miterlimit="10" stroke-linecap="round" stroke-linejoin="round"/>
<path d="M25.3397 25.7089H1V40.5895H25.3397V25.7089Z" fill="#FF99FF" stroke="#3D6CB4" stroke-miterlimit="10" stroke-linecap="round" stroke-linejoin="round"/>
<path opacity="0.3" d="M9.84421 28.9413H3.54718V37.3264H9.84421V28.9413Z" fill="#FF99FF"/>
<path d="M9.84421 28.9413H3.54718V37.3264H9.84421V28.9413Z" fill="#FF99FF" stroke="#3D6CB4" stroke-miterlimit="10" stroke-linecap="round" stroke-linejoin="round"/>
<path d="M12.8365 29.3917H23.0821" stroke="#3D6CB4" stroke-miterlimit="10" stroke-linecap="round" stroke-linejoin="round"/>
<path d="M12.8365 32.3339H19.7771" stroke="#3D6CB4" stroke-miterlimit="10" stroke-linecap="round" stroke-linejoin="round"/>
<path d="M13.6327 36.9211C14.0447 36.9211 14.3787 36.5495 14.3787 36.091C14.3787 35.6326 14.0447 35.261 13.6327 35.261C13.2207 35.261 12.8868 35.6326 12.8868 36.091C12.8868 36.5495 13.2207 36.9211 13.6327 36.9211Z" fill="#FF99FF" stroke="#3D6CB4" stroke-miterlimit="10" stroke-linecap="round" stroke-linejoin="round"/>
<path d="M17.029 36.9211C17.4409 36.9211 17.7749 36.5495 17.7749 36.091C17.7749 35.6326 17.4409 35.261 17.029 35.261C16.617 35.261 16.283 35.6326 16.283 36.091C16.283 36.5495 16.617 36.9211 17.029 36.9211Z" fill="#FF99FF" stroke="#3D6CB4" stroke-miterlimit="10" stroke-linecap="round" stroke-linejoin="round"/>
<path d="M20.4252 36.9211C20.8372 36.9211 21.1711 36.5495 21.1711 36.091C21.1711 35.6326 20.8372 35.261 20.4252 35.261C20.0132 35.261 19.6793 35.6326 19.6793 36.091C19.6793 36.5495 20.0132 36.9211 20.4252 36.9211Z" fill="#FF99FF" stroke="#3D6CB4" stroke-miterlimit="10" stroke-linecap="round" stroke-linejoin="round"/>
</svg>
