<svg width="60" height="60" viewBox="0 0 60 60" fill="none" xmlns="http://www.w3.org/2000/svg">
<rect width="60" height="60" rx="30" fill="#544D54"/>
<g clip-path="url(#clip0_56_374)">
<path d="M17.5 17.5H42.5V42.5H17.5V17.5Z" fill="#F7DF1E"/>
<path d="M24.0733 38.3917L25.9864 37.2339C26.3556 37.8883 26.6913 38.442 27.4967 38.442C28.2687 38.442 28.7555 38.1401 28.7555 36.9655V28.9774H31.1048V36.9987C31.1048 39.432 29.6784 40.5396 27.5974 40.5396C25.718 40.5396 24.6271 39.5663 24.0732 38.3916M32.3809 38.14L34.2937 37.0325C34.7974 37.8548 35.4519 38.4589 36.6097 38.4589C37.5832 38.4589 38.2039 37.9722 38.2039 37.3009C38.2039 36.4955 37.5662 36.2101 36.4922 35.7404L35.905 35.4884C34.21 34.767 33.0856 33.8608 33.0856 31.9477C33.0856 30.1856 34.4281 28.843 36.5259 28.843C38.0194 28.843 39.0935 29.3633 39.8653 30.7226L38.036 31.8974C37.6332 31.1758 37.1971 30.8906 36.5258 30.8906C35.8377 30.8906 35.4014 31.3269 35.4014 31.8974C35.4014 32.6022 35.8377 32.8876 36.8445 33.324L37.4318 33.5756C39.4289 34.4316 40.5532 35.3042 40.5532 37.2674C40.5532 39.3821 38.8919 40.5399 36.66 40.5399C34.4784 40.5399 33.0688 39.4995 32.3808 38.1401" fill="black"/>
</g>
<defs>
<clipPath id="clip0_56_374">
<rect width="25" height="25" fill="white" transform="translate(17.5 17.5)"/>
</clipPath>
</defs>
</svg>
