<svg width="60" height="60" viewBox="0 0 60 60" fill="none" xmlns="http://www.w3.org/2000/svg">
<rect width="60" height="60" rx="30" fill="#544D54"/>
<path d="M29.8378 40C29.7361 40 29.6411 39.9705 29.553 39.9188L28.6511 39.3356C28.5154 39.2544 28.5833 39.2248 28.624 39.2101C28.807 39.1437 28.841 39.1288 29.0308 39.0108C29.0512 38.996 29.0783 39.0034 29.0986 39.0181L29.7903 39.4685C29.8175 39.4832 29.8514 39.4832 29.8717 39.4685L32.5774 37.763C32.6045 37.7483 32.6181 37.7187 32.6181 37.6819V34.2784C32.6181 34.2414 32.6045 34.212 32.5774 34.1972L29.8717 32.4991C29.8446 32.4843 29.8106 32.4843 29.7903 32.4991L27.0846 34.1972C27.0575 34.2119 27.0439 34.2488 27.0439 34.2783V37.6818C27.0439 37.7114 27.0575 37.7482 27.0846 37.763L27.8238 38.2281C28.2239 38.4496 28.4748 38.1912 28.4748 37.9328V34.5737C28.4748 34.5294 28.5087 34.4851 28.5562 34.4851H28.902C28.9427 34.4851 28.9834 34.522 28.9834 34.5737V37.9328C28.9834 38.516 28.6917 38.8557 28.1832 38.8557C28.0272 38.8557 27.9052 38.8557 27.5593 38.6711L26.8473 38.2281C26.671 38.1174 26.5625 37.9107 26.5625 37.6892V34.2858C26.5625 34.0643 26.671 33.8575 26.8473 33.7468L29.553 32.0414C29.7225 31.938 29.9531 31.938 30.1226 32.0414L32.8283 33.7468C33.0046 33.8575 33.1131 34.0643 33.1131 34.2858V37.6892C33.1131 37.9107 33.0046 38.1174 32.8283 38.2281L30.1226 39.9336C30.0344 39.9779 29.9327 40 29.8378 40ZM30.6719 37.6597C29.4852 37.6597 29.2411 37.0691 29.2411 36.567C29.2411 36.5227 29.275 36.4785 29.3225 36.4785H29.6751C29.7158 36.4785 29.7497 36.508 29.7497 36.5523C29.804 36.9436 29.9599 37.1355 30.6787 37.1355C31.2483 37.1355 31.4925 36.9952 31.4925 36.663C31.4925 36.471 31.4246 36.3308 30.5363 36.2348C29.7972 36.1536 29.336 35.9764 29.336 35.3341C29.336 34.7361 29.7972 34.3817 30.5702 34.3817C31.4382 34.3817 31.8654 34.7066 31.9197 35.4153C31.9197 35.4374 31.9129 35.4596 31.8994 35.4818C31.8857 35.4965 31.8654 35.5113 31.8451 35.5113H31.4925C31.4585 35.5113 31.4246 35.4818 31.4179 35.4448C31.3365 35.0388 31.1263 34.9059 30.5702 34.9059C29.9464 34.9059 29.8717 35.1422 29.8717 35.3193C29.8717 35.5334 29.9599 35.5999 30.8008 35.718C31.6349 35.8362 32.0282 36.0059 32.0282 36.6408C32.0214 37.2905 31.5332 37.6597 30.6719 37.6597Z" fill="#539E43"/>
<path d="M21.4421 26.6889C21.4421 26.556 21.3743 26.4304 21.2658 26.364L18.3906 24.5626C18.3431 24.533 18.2889 24.5183 18.2347 24.5109H18.2075C18.1533 24.5109 18.099 24.533 18.0515 24.5626L15.1763 26.364C15.0678 26.4304 15 26.5559 15 26.6889L15.0068 31.5319C15.0068 31.5984 15.0407 31.6648 15.0949 31.6944C15.1492 31.7313 15.217 31.7313 15.2645 31.6944L16.9734 30.6313C17.0818 30.5648 17.1497 30.4393 17.1497 30.3064V28.0399C17.1497 27.907 17.2174 27.7815 17.326 27.7151L18.0515 27.2573C18.1058 27.2204 18.1668 27.2056 18.2278 27.2056C18.2889 27.2056 18.3499 27.2204 18.3974 27.2573L19.123 27.7151C19.2315 27.7815 19.2993 27.907 19.2993 28.0399V30.3064C19.2993 30.4393 19.3671 30.5648 19.4756 30.6313L21.1844 31.6944C21.2108 31.7125 21.2414 31.7221 21.2726 31.7221C21.3038 31.7221 21.3344 31.7125 21.3608 31.6944C21.415 31.6648 21.4489 31.5984 21.4489 31.5319L21.4421 26.6889ZM35.2622 20.0222C35.208 19.9926 35.1402 19.9926 35.0926 20.0222C35.0384 20.0591 35.0045 20.1181 35.0045 20.1846V24.9834C35.0045 25.0277 34.9842 25.072 34.9435 25.1015C34.9028 25.1237 34.8621 25.1237 34.8214 25.1015L34.1026 24.6512C34.0499 24.6186 33.9903 24.6014 33.9297 24.6014C33.8691 24.6014 33.8095 24.6186 33.7568 24.6512L30.8815 26.46C30.773 26.5264 30.7052 26.6519 30.7052 26.7848V30.395C30.7052 30.5278 30.773 30.6534 30.8815 30.7199L33.7568 32.5286C33.8095 32.5613 33.8691 32.5785 33.9297 32.5785C33.9903 32.5785 34.0499 32.5613 34.1026 32.5286L36.9779 30.7199C37.0863 30.6534 37.1542 30.5279 37.1542 30.395V21.3954C37.1542 21.2551 37.0863 21.1296 36.9779 21.0631L35.2622 20.0222ZM34.9978 29.2064C34.9978 29.2433 34.9842 29.2728 34.957 29.2876L33.9738 29.9077C33.9601 29.915 33.945 29.9188 33.9297 29.9188C33.9144 29.9188 33.8993 29.915 33.8856 29.9077L32.9024 29.2876C32.8752 29.2728 32.8616 29.2359 32.8616 29.2064V27.9661C32.8616 27.9291 32.8752 27.8996 32.9024 27.8849L33.8856 27.2647C33.8993 27.2574 33.9144 27.2536 33.9297 27.2536C33.945 27.2536 33.9601 27.2574 33.9738 27.2647L34.957 27.8849C34.9842 27.8996 34.9978 27.9365 34.9978 27.9661V29.2064ZM44.8304 27.9365C44.939 27.8701 45 27.7446 45 27.6117V26.7331C45 26.6003 44.9322 26.4747 44.8304 26.4083L41.9756 24.6069C41.9229 24.5743 41.8633 24.5571 41.8026 24.5571C41.742 24.5571 41.6824 24.5743 41.6297 24.6069L38.7545 26.4157C38.6459 26.4821 38.5782 26.6076 38.5782 26.7405V30.3507C38.5782 30.4836 38.646 30.6091 38.7545 30.6755L41.6093 32.4474C41.7179 32.5138 41.8467 32.5138 41.9485 32.4474L43.6776 31.3991C43.7319 31.3696 43.7658 31.3031 43.7658 31.2367C43.7658 31.1703 43.7319 31.1038 43.6776 31.0743L40.7889 29.2655C40.7346 29.2285 40.7007 29.1695 40.7007 29.1031V27.9735C40.7007 27.9071 40.7346 27.8407 40.7889 27.8111L41.6907 27.25C41.7171 27.2319 41.7477 27.2223 41.7789 27.2223C41.8101 27.2223 41.8406 27.2319 41.867 27.25L42.769 27.8111C42.8232 27.848 42.8571 27.907 42.8571 27.9735V28.8595C42.8571 28.9259 42.891 28.9923 42.9453 29.0218C42.9717 29.0399 43.0022 29.0495 43.0334 29.0495C43.0646 29.0495 43.0952 29.0399 43.1216 29.0218L44.8304 27.9365Z" fill="#539E43"/>
<path d="M41.758 27.7666C41.768 27.7593 41.7798 27.7555 41.7919 27.7555C41.8039 27.7555 41.8157 27.7593 41.8258 27.7666L42.3751 28.1136C42.3954 28.1284 42.4089 28.1505 42.4089 28.18V28.874C42.4089 28.9035 42.3954 28.9257 42.3751 28.9405L41.8258 29.2875C41.8157 29.2947 41.8039 29.2985 41.7919 29.2985C41.7798 29.2985 41.768 29.2947 41.758 29.2875L41.2087 28.9405C41.1884 28.9257 41.1748 28.9035 41.1748 28.874V28.1801C41.1748 28.1505 41.1883 28.1283 41.2087 28.1136L41.758 27.7666Z" fill="#539E43"/>
<path d="M26.2501 24.6216C26.1974 24.5889 26.1378 24.5718 26.0772 24.5718C26.0166 24.5718 25.957 24.5889 25.9043 24.6216L23.0494 26.4155C22.9409 26.4819 22.8799 26.6074 22.8799 26.7403V30.3358C22.8799 30.4686 22.9477 30.5942 23.0494 30.6606L25.9043 32.4546C25.957 32.4873 26.0166 32.5044 26.0772 32.5044C26.1378 32.5044 26.1974 32.4873 26.2501 32.4546L29.105 30.6606C29.2135 30.5942 29.2746 30.4686 29.2746 30.3358V26.7404C29.2746 26.6075 29.2067 26.482 29.105 26.4155L26.2501 24.6216Z" fill="url(#paint0_linear_54_147)"/>
<mask id="mask0_54_147" style="mask-type:luminance" maskUnits="userSpaceOnUse" x="22" y="24" width="8" height="9">
<path d="M26.2501 24.6216C26.1974 24.5889 26.1378 24.5718 26.0772 24.5718C26.0166 24.5718 25.957 24.5889 25.9043 24.6216L23.0494 26.4155C22.9409 26.4819 22.8799 26.6074 22.8799 26.7403V30.3358C22.8799 30.4686 22.9477 30.5942 23.0494 30.6606L25.9043 32.4546C25.957 32.4873 26.0166 32.5044 26.0772 32.5044C26.1378 32.5044 26.1974 32.4873 26.2501 32.4546L29.105 30.6606C29.2135 30.5942 29.2746 30.4686 29.2746 30.3358V26.7404C29.2746 26.6075 29.2067 26.482 29.105 26.4155L26.2501 24.6216Z" fill="white"/>
</mask>
<g mask="url(#mask0_54_147)">
<path d="M29.1113 26.4156L26.2429 24.6216C26.2147 24.6061 26.1852 24.5938 26.1547 24.5847L22.9404 30.5796C22.9671 30.615 22.9992 30.645 23.0354 30.6682L25.9038 32.4622C25.9852 32.5139 26.0801 32.5287 26.1683 32.4991L29.186 26.4895C29.1656 26.46 29.1384 26.4377 29.1113 26.4156Z" fill="url(#paint1_linear_54_147)"/>
</g>
<mask id="mask1_54_147" style="mask-type:luminance" maskUnits="userSpaceOnUse" x="22" y="24" width="8" height="9">
<path d="M26.2501 24.6216C26.1974 24.5889 26.1378 24.5718 26.0772 24.5718C26.0166 24.5718 25.957 24.5889 25.9043 24.6216L23.0494 26.4155C22.9409 26.4819 22.8799 26.6074 22.8799 26.7403V30.3358C22.8799 30.4686 22.9477 30.5942 23.0494 30.6606L25.9043 32.4546C25.957 32.4873 26.0166 32.5044 26.0772 32.5044C26.1378 32.5044 26.1974 32.4873 26.2501 32.4546L29.105 30.6606C29.2135 30.5942 29.2746 30.4686 29.2746 30.3358V26.7404C29.2746 26.6075 29.2067 26.482 29.105 26.4155L26.2501 24.6216Z" fill="white"/>
</mask>
<g mask="url(#mask1_54_147)">
<path fill-rule="evenodd" clip-rule="evenodd" d="M29.118 30.6609C29.1994 30.6093 29.2604 30.5207 29.2876 30.4247L26.141 24.5775C26.0596 24.5628 25.9715 24.5701 25.8969 24.6218L23.0488 26.4085L26.1207 32.5066C26.1653 32.4987 26.2087 32.4838 26.2495 32.4624L29.118 30.6609Z" fill="url(#paint2_linear_54_147)"/>
<path fill-rule="evenodd" clip-rule="evenodd" d="M29.1184 30.6606L26.2568 32.4547C26.2164 32.4771 26.1728 32.492 26.1279 32.4989L26.1822 32.6097L29.3558 30.609V30.5647L29.2744 30.417C29.2608 30.5203 29.1998 30.6089 29.1184 30.6606Z" fill="url(#paint3_linear_54_147)"/>
<path fill-rule="evenodd" clip-rule="evenodd" d="M29.1184 30.6606L26.2568 32.4547C26.2164 32.4771 26.1728 32.492 26.1279 32.4989L26.1822 32.6097L29.3558 30.609V30.5647L29.2744 30.417C29.2608 30.5203 29.1998 30.6089 29.1184 30.6606Z" fill="url(#paint4_linear_54_147)"/>
</g>
<defs>
<linearGradient id="paint0_linear_54_147" x1="458.924" y1="163.29" x2="106.829" y2="671.455" gradientUnits="userSpaceOnUse">
<stop stop-color="#41873F"/>
<stop offset="0.3288" stop-color="#418B3D"/>
<stop offset="0.6352" stop-color="#419637"/>
<stop offset="0.9319" stop-color="#3FA92D"/>
<stop offset="1" stop-color="#3FAE2A"/>
</linearGradient>
<linearGradient id="paint1_linear_54_147" x1="293.228" y1="462.044" x2="1105.88" y2="56.5074" gradientUnits="userSpaceOnUse">
<stop offset="0.1376" stop-color="#41873F"/>
<stop offset="0.4032" stop-color="#54A044"/>
<stop offset="0.7136" stop-color="#66B848"/>
<stop offset="0.9081" stop-color="#6CC04A"/>
</linearGradient>
<linearGradient id="paint2_linear_54_147" x1="-4.33316" y1="421.339" x2="656.278" y2="421.339" gradientUnits="userSpaceOnUse">
<stop offset="0.09192" stop-color="#6CC04A"/>
<stop offset="0.2864" stop-color="#66B848"/>
<stop offset="0.5968" stop-color="#54A044"/>
<stop offset="0.8624" stop-color="#41873F"/>
</linearGradient>
<linearGradient id="paint3_linear_54_147" x1="-309.119" y1="140.655" x2="351.485" y2="140.655" gradientUnits="userSpaceOnUse">
<stop offset="0.09192" stop-color="#6CC04A"/>
<stop offset="0.2864" stop-color="#66B848"/>
<stop offset="0.5968" stop-color="#54A044"/>
<stop offset="0.8624" stop-color="#41873F"/>
</linearGradient>
<linearGradient id="paint4_linear_54_147" x1="447.727" y1="-432.393" x2="250.641" y2="516.176" gradientUnits="userSpaceOnUse">
<stop stop-color="#41873F"/>
<stop offset="0.3288" stop-color="#418B3D"/>
<stop offset="0.6352" stop-color="#419637"/>
<stop offset="0.9319" stop-color="#3FA92D"/>
<stop offset="1" stop-color="#3FAE2A"/>
</linearGradient>
</defs>
</svg>
