<svg width="45" height="45" viewBox="0 0 45 45" fill="none" xmlns="http://www.w3.org/2000/svg">
<path fill-rule="evenodd" clip-rule="evenodd" d="M15.0001 22.5H9.3301C8.77977 23.4532 7.93028 24.1982 6.9134 24.6194C5.89651 25.0406 4.76906 25.1145 3.70589 24.8296C2.64273 24.5448 1.70327 23.917 1.03323 23.0438C0.363186 22.1706 0 21.1007 0 20C0 18.8993 0.363186 17.8294 1.03323 16.9562C1.70327 16.083 2.64273 15.4552 3.70589 15.1704C4.76906 14.8855 5.89651 14.9594 6.9134 15.3806C7.93028 15.8018 8.77977 16.5468 9.3301 17.5H15.0001V5C15.0001 3.67392 15.5269 2.40215 16.4645 1.46447C17.4022 0.526784 18.674 0 20.0001 0H40C41.3261 0 42.5979 0.526784 43.5355 1.46447C44.4732 2.40215 45 3.67392 45 5V40C45 41.3261 44.4732 42.5979 43.5355 43.5355C42.5979 44.4732 41.3261 45 40 45H20.0001C18.674 45 17.4022 44.4732 16.4645 43.5355C15.5269 42.5979 15.0001 41.3261 15.0001 40V22.5ZM20.0001 22.5V40H40V5H20.0001V17.5H25.6701C26.2204 16.5468 27.0699 15.8018 28.0868 15.3806C29.1036 14.9594 30.2311 14.8855 31.2943 15.1704C32.3574 15.4552 33.2969 16.083 33.9669 16.9562C34.637 17.8294 35.0002 18.8993 35.0002 20C35.0002 21.1007 34.637 22.1706 33.9669 23.0438C33.2969 23.917 32.3574 24.5448 31.2943 24.8296C30.2311 25.1145 29.1036 25.0406 28.0868 24.6194C27.0699 24.1982 26.2204 23.4532 25.6701 22.5H20.0001Z" fill="#FF99FF"/>
</svg>
