<svg width="60" height="60" viewBox="0 0 60 60" fill="none" xmlns="http://www.w3.org/2000/svg">
<rect width="60" height="60" rx="30" fill="#544D54"/>
<path d="M30 26.875C35.8156 26.875 39.375 28.8984 39.375 30C39.375 31.1016 35.8156 33.125 30 33.125C24.1844 33.125 20.625 31.1016 20.625 30C20.625 28.8984 24.1844 26.875 30 26.875ZM30 25.3125C23.9594 25.3125 19.0625 27.4109 19.0625 30C19.0625 32.5891 23.9594 34.6875 30 34.6875C36.0406 34.6875 40.9375 32.5891 40.9375 30C40.9375 27.4109 36.0406 25.3125 30 25.3125Z" fill="#00BCD4"/>
<path d="M30 28.4375C29.691 28.4375 29.3889 28.5291 29.1319 28.7008C28.875 28.8725 28.6747 29.1165 28.5564 29.4021C28.4382 29.6876 28.4072 30.0017 28.4675 30.3048C28.5278 30.6079 28.6766 30.8863 28.8951 31.1049C29.1137 31.3234 29.3921 31.4722 29.6952 31.5325C29.9983 31.5928 30.3124 31.5618 30.5979 31.4436C30.8835 31.3253 31.1275 31.125 31.2992 30.8681C31.4709 30.6111 31.5625 30.309 31.5625 30C31.5625 29.5856 31.3979 29.1882 31.1049 28.8951C30.8118 28.6021 30.4144 28.4375 30 28.4375Z" fill="#00BCD4"/>
<path d="M25.67 21.8024C27.2458 21.8024 30.3083 24.2844 32.706 28.4375C35.6138 33.4742 35.6411 37.568 34.6872 38.1188C34.5772 38.1758 34.454 38.2028 34.3302 38.1969C32.7544 38.1969 29.6911 35.7157 27.2935 31.5625C24.3857 26.5258 24.3583 22.4321 25.3122 21.8813C25.4225 21.8241 25.546 21.7963 25.67 21.8024ZM25.6693 20.2406C25.2711 20.2334 24.8782 20.3324 24.531 20.5274C22.2888 21.8219 22.92 27.1125 25.9403 32.3438C28.506 36.7891 31.9716 39.7602 34.331 39.7602C34.729 39.7668 35.1216 39.6673 35.4685 39.4719C37.7107 38.1782 37.0794 32.8875 34.0591 27.6563C31.4935 23.211 28.0278 20.2399 25.6685 20.2399L25.6693 20.2406Z" fill="#00BCD4"/>
<path d="M34.33 21.8023C34.4538 21.7964 34.577 21.8234 34.687 21.8804C35.641 22.432 35.6136 26.5258 32.7058 31.5625C30.3074 35.7156 27.2449 38.1976 25.6691 38.1976C25.5453 38.2035 25.4221 38.1766 25.312 38.1195C24.3581 37.5672 24.3855 33.4734 27.2933 28.4375C29.6917 24.2844 32.7542 21.8023 34.33 21.8023ZM34.33 20.2398C31.9706 20.2398 28.5058 23.2117 25.9394 27.6562C22.9206 32.8875 22.2886 38.1781 24.5308 39.4719C24.8779 39.6674 25.2708 39.7669 25.6691 39.7601C28.0285 39.7601 31.4933 36.7883 34.0597 32.3437C37.0785 27.1125 37.7105 21.8219 35.4683 20.5281C35.1212 20.3326 34.7283 20.2331 34.33 20.2398Z" fill="#00BCD4"/>
</svg>
