<svg width="60" height="60" viewBox="0 0 60 60" fill="none" xmlns="http://www.w3.org/2000/svg">
<rect width="60" height="60" rx="30" fill="#544D54"/>
<g clip-path="url(#clip0_56_380)">
<path d="M30.001 22.5005C26.6676 22.5005 24.585 24.1665 23.751 27.4999C25.0006 25.8337 26.4594 25.2089 28.1256 25.6255C29.077 25.8626 29.7568 26.5524 30.5098 27.3169C31.7352 28.5604 33.1535 30.0001 36.251 30.0001C39.5842 30.0001 41.667 28.3339 42.501 24.9997C41.251 26.6668 39.7927 27.2919 38.1262 26.8751C37.175 26.6378 36.4959 25.9481 35.742 25.1837C34.5174 23.9401 33.0994 22.5005 30.001 22.5005ZM23.751 30.0001C20.4178 30.0001 18.335 31.6663 17.501 35.0005C18.7508 33.3334 20.209 32.7083 21.8756 33.1251C22.827 33.3624 23.5068 34.0521 24.2598 34.8165C25.4852 36.0601 26.9035 37.4997 30.001 37.4997C33.3342 37.4997 35.417 35.8337 36.251 32.5003C35.001 34.1666 33.5427 34.7914 31.8762 34.3747C30.925 34.1376 30.2459 33.4478 29.492 32.6833C28.2674 31.4397 26.8494 30.0001 23.751 30.0001Z" fill="#38BDF8"/>
</g>
<defs>
<clipPath id="clip0_56_380">
<rect width="25" height="25" fill="white" transform="translate(17.5 17.5)"/>
</clipPath>
</defs>
</svg>
