<svg width="360" height="176" viewBox="0 0 360 176" fill="none" xmlns="http://www.w3.org/2000/svg">
<circle cx="22.5" cy="88" r="12.5" fill="#FF99FF"/>
<path d="M83.0575 34.1875H68.8875V74H60.145V34.1875H45.975V27.005H83.0575V34.1875ZM107.732 33.96V46.9925H124.177V53.72H107.732V67.0125H128.597V74H98.9571V27.005H128.597V33.96H107.732ZM177.352 62.9175C177.828 62.9175 178.251 63.1017 178.619 63.47L182.064 67.2075C180.158 69.5692 177.807 71.3783 175.012 72.635C172.238 73.8917 168.902 74.52 165.002 74.52C161.513 74.52 158.372 73.9242 155.577 72.7325C152.803 71.5408 150.431 69.8833 148.459 67.76C146.488 65.6367 144.971 63.1017 143.909 60.155C142.869 57.2083 142.349 53.9908 142.349 50.5025C142.349 46.9708 142.913 43.7425 144.039 40.8175C145.166 37.8708 146.748 35.3358 148.784 33.2125C150.843 31.0892 153.291 29.4425 156.129 28.2725C158.968 27.0808 162.109 26.485 165.554 26.485C168.978 26.485 172.011 27.0483 174.654 28.175C177.319 29.3017 179.583 30.775 181.447 32.595L178.522 36.6575C178.348 36.9175 178.121 37.145 177.839 37.34C177.579 37.535 177.211 37.6325 176.734 37.6325C176.409 37.6325 176.073 37.5458 175.727 37.3725C175.38 37.1775 175.001 36.95 174.589 36.69C174.178 36.4083 173.701 36.105 173.159 35.78C172.618 35.455 171.989 35.1625 171.274 34.9025C170.559 34.6208 169.725 34.3933 168.772 34.22C167.84 34.025 166.757 33.9275 165.522 33.9275C163.42 33.9275 161.492 34.3067 159.737 35.065C158.003 35.8017 156.508 36.885 155.252 38.315C153.995 39.7233 153.02 41.4567 152.327 43.515C151.633 45.5517 151.287 47.8808 151.287 50.5025C151.287 53.1458 151.655 55.4967 152.392 57.555C153.15 59.6133 154.168 61.3467 155.447 62.755C156.725 64.1633 158.231 65.2467 159.964 66.005C161.698 66.7417 163.561 67.11 165.554 67.11C166.746 67.11 167.818 67.045 168.772 66.915C169.747 66.785 170.635 66.5792 171.437 66.2975C172.26 66.0158 173.029 65.6583 173.744 65.225C174.481 64.77 175.207 64.2175 175.922 63.5675C176.138 63.3725 176.366 63.2208 176.604 63.1125C176.843 62.9825 177.092 62.9175 177.352 62.9175ZM237.42 27.005V74H228.645V53.46H206.578V74H197.803V27.005H206.578V47.22H228.645V27.005H237.42ZM75.2575 113.552C74.9975 114.007 74.7158 114.343 74.4125 114.56C74.1308 114.755 73.7733 114.852 73.34 114.852C72.885 114.852 72.3867 114.69 71.845 114.365C71.325 114.018 70.6967 113.639 69.96 113.227C69.2233 112.816 68.3567 112.447 67.36 112.122C66.385 111.776 65.2258 111.602 63.8825 111.602C62.6692 111.602 61.6075 111.754 60.6975 112.057C59.7875 112.339 59.0183 112.74 58.39 113.26C57.7833 113.78 57.3283 114.408 57.025 115.145C56.7217 115.86 56.57 116.651 56.57 117.517C56.57 118.622 56.8733 119.543 57.48 120.28C58.1083 121.017 58.9317 121.645 59.95 122.165C60.9683 122.685 62.1275 123.151 63.4275 123.562C64.7275 123.974 66.06 124.418 67.425 124.895C68.79 125.35 70.1225 125.892 71.4225 126.52C72.7225 127.127 73.8817 127.907 74.9 128.86C75.9183 129.792 76.7308 130.94 77.3375 132.305C77.9658 133.67 78.28 135.327 78.28 137.277C78.28 139.401 77.9117 141.394 77.175 143.257C76.46 145.099 75.3983 146.713 73.99 148.1C72.6033 149.465 70.9025 150.548 68.8875 151.35C66.8725 152.13 64.565 152.52 61.965 152.52C60.47 152.52 58.9967 152.368 57.545 152.065C56.0933 151.783 54.6958 151.372 53.3525 150.83C52.0308 150.288 50.785 149.638 49.615 148.88C48.445 148.122 47.405 147.277 46.495 146.345L49.0625 142.152C49.2792 141.849 49.5608 141.6 49.9075 141.405C50.2542 141.188 50.6225 141.08 51.0125 141.08C51.5542 141.08 52.1392 141.307 52.7675 141.762C53.3958 142.196 54.1433 142.683 55.01 143.225C55.8767 143.767 56.8842 144.265 58.0325 144.72C59.2025 145.153 60.6 145.37 62.225 145.37C64.7167 145.37 66.645 144.785 68.01 143.615C69.375 142.423 70.0575 140.722 70.0575 138.512C70.0575 137.277 69.7433 136.27 69.115 135.49C68.5083 134.71 67.6958 134.06 66.6775 133.54C65.6592 132.998 64.5 132.543 63.2 132.175C61.9 131.807 60.5783 131.406 59.235 130.972C57.8917 130.539 56.57 130.019 55.27 129.412C53.97 128.806 52.8108 128.015 51.7925 127.04C50.7742 126.065 49.9508 124.852 49.3225 123.4C48.7158 121.927 48.4125 120.117 48.4125 117.972C48.4125 116.261 48.7483 114.592 49.42 112.967C50.1133 111.342 51.11 109.902 52.41 108.645C53.71 107.388 55.3133 106.381 57.22 105.622C59.1267 104.864 61.315 104.485 63.785 104.485C66.5583 104.485 69.115 104.918 71.455 105.785C73.795 106.652 75.7883 107.865 77.435 109.425L75.2575 113.552ZM128.481 112.187H114.311V152H105.569V112.187H91.3988V105.005H128.481V112.187ZM164.641 134.255L158.921 118.622C158.639 117.929 158.346 117.106 158.043 116.152C157.74 115.199 157.436 114.17 157.133 113.065C156.851 114.17 156.559 115.21 156.256 116.185C155.952 117.138 155.66 117.972 155.378 118.687L149.691 134.255H164.641ZM180.078 152H173.318C172.56 152 171.942 151.816 171.466 151.447C170.989 151.057 170.631 150.581 170.393 150.017L166.883 140.43H147.416L143.906 150.017C143.732 150.516 143.396 150.971 142.898 151.382C142.4 151.794 141.782 152 141.046 152H134.221L152.713 105.005H161.618L180.078 152ZM225.568 140.917C226.045 140.917 226.468 141.102 226.836 141.47L230.281 145.207C228.374 147.569 226.023 149.378 223.228 150.635C220.455 151.892 217.118 152.52 213.218 152.52C209.73 152.52 206.588 151.924 203.793 150.732C201.02 149.541 198.648 147.883 196.676 145.76C194.704 143.637 193.188 141.102 192.126 138.155C191.086 135.208 190.566 131.991 190.566 128.502C190.566 124.971 191.129 121.742 192.256 118.817C193.383 115.871 194.964 113.336 197.001 111.212C199.059 109.089 201.508 107.442 204.346 106.272C207.184 105.081 210.326 104.485 213.771 104.485C217.194 104.485 220.228 105.048 222.871 106.175C225.536 107.302 227.8 108.775 229.663 110.595L226.738 114.657C226.565 114.917 226.338 115.145 226.056 115.34C225.796 115.535 225.428 115.632 224.951 115.632C224.626 115.632 224.29 115.546 223.943 115.372C223.597 115.177 223.218 114.95 222.806 114.69C222.394 114.408 221.918 114.105 221.376 113.78C220.834 113.455 220.206 113.162 219.491 112.902C218.776 112.621 217.942 112.393 216.988 112.22C216.057 112.025 214.973 111.927 213.738 111.927C211.637 111.927 209.708 112.307 207.953 113.065C206.22 113.802 204.725 114.885 203.468 116.315C202.212 117.723 201.237 119.457 200.543 121.515C199.85 123.552 199.503 125.881 199.503 128.502C199.503 131.146 199.872 133.497 200.608 135.555C201.367 137.613 202.385 139.347 203.663 140.755C204.942 142.163 206.448 143.247 208.181 144.005C209.914 144.742 211.778 145.11 213.771 145.11C214.963 145.11 216.035 145.045 216.988 144.915C217.963 144.785 218.852 144.579 219.653 144.297C220.477 144.016 221.246 143.658 221.961 143.225C222.698 142.77 223.423 142.217 224.138 141.567C224.355 141.372 224.583 141.221 224.821 141.112C225.059 140.982 225.308 140.917 225.568 140.917ZM254.762 124.7H256.81C257.633 124.7 258.315 124.592 258.857 124.375C259.399 124.137 259.865 123.768 260.255 123.27L273.222 106.857C273.764 106.164 274.327 105.687 274.912 105.427C275.519 105.146 276.277 105.005 277.187 105.005H284.727L268.9 124.537C267.968 125.729 267.004 126.574 266.007 127.072C266.722 127.332 267.361 127.701 267.925 128.177C268.51 128.632 269.062 129.239 269.582 129.997L285.897 152H278.195C277.155 152 276.375 151.859 275.855 151.577C275.356 151.274 274.934 150.841 274.587 150.277L261.295 132.922C260.883 132.337 260.406 131.926 259.865 131.688C259.323 131.449 258.543 131.33 257.525 131.33H254.762V152H246.02V105.005H254.762V124.7Z" fill="white"/>
</svg>
