<svg width="45" height="45" viewBox="0 0 45 45" fill="none" xmlns="http://www.w3.org/2000/svg">
<path d="M20.5803 0.801L0.79772 20.5798C0.544896 20.8319 0.344292 21.1315 0.207414 21.4613C0.0705358 21.7911 7.62939e-05 22.1447 7.62939e-05 22.5019C7.62939e-05 22.859 0.0705358 23.2126 0.207414 23.5424C0.344292 23.8723 0.544896 24.1718 0.79772 24.4239L20.5803 44.2026C21.6439 45.2658 23.3617 45.2658 24.4251 44.2026L32.7198 35.9096C33.6723 34.9573 33.6723 33.4133 32.7198 32.4611C31.7673 31.5089 30.2231 31.5087 29.2706 32.4611L22.9825 38.7477C22.7178 39.0124 22.316 39.0124 22.0513 38.7477L6.25343 22.9532C5.98871 22.6885 5.98871 22.2869 6.25343 22.0222L22.0513 6.22745C22.316 5.96292 22.7178 5.96292 22.9825 6.22745L29.2706 12.5143C30.2231 13.4667 31.7673 13.4667 32.7198 12.5143C33.6723 11.5619 33.6723 10.0181 32.7198 9.06571L24.426 0.77386C23.3582 -0.266631 21.6397 -0.258172 20.5803 0.801Z" fill="url(#paint0_linear_17_68)"/>
<path d="M20.5803 0.801023L0.79772 20.5799C0.544896 20.832 0.344292 21.1315 0.207414 21.4613C0.0705358 21.7911 7.62939e-05 22.1448 7.62939e-05 22.5019C7.62939e-05 22.859 0.0705358 23.2126 0.207414 23.5425C0.344292 23.8723 0.544896 24.1718 0.79772 24.4239L20.5803 44.2026C21.6439 45.2658 23.3617 45.2658 24.4251 44.2026L32.7198 35.9097C33.6723 34.9573 33.6723 33.4133 32.7198 32.4611C31.7673 31.5089 30.2231 31.5087 29.2706 32.4611L22.9825 38.7478C22.7178 39.0125 22.316 39.0125 22.0513 38.7478L6.25343 22.9532C5.98871 22.6885 5.98871 22.2869 6.25343 22.0222L22.0513 6.22747C22.7104 5.65894 23.786 4.50742 25.3651 4.23778C26.5388 4.0377 27.822 4.47828 29.2147 5.55954L24.4262 0.773707C23.3582 -0.266608 21.6399 -0.258149 20.5803 0.801023Z" fill="url(#paint1_linear_17_68)"/>
<path d="M34.6348 30.6219C35.5873 31.5742 37.1316 31.5742 38.0841 30.6219L44.2026 24.5047C44.4554 24.2527 44.656 23.9531 44.7929 23.6233C44.9298 23.2935 45.0002 22.9399 45.0002 22.5827C45.0002 22.2256 44.9298 21.872 44.7929 21.5422C44.656 21.2123 44.4554 20.9128 44.2026 20.6607L38.0309 14.5119C37.0761 13.5607 35.5313 13.5621 34.5783 14.515C33.6258 15.4674 33.6258 17.0112 34.5783 17.9636L38.7467 22.1312C39.0114 22.3959 39.0114 22.7976 38.7467 23.0623L34.6348 27.1733C33.6823 28.1257 33.6823 29.6697 34.6348 30.6219Z" fill="url(#paint2_linear_17_68)"/>
<path d="M22.6018 27.9414C25.5518 27.9414 27.9432 25.5505 27.9432 22.6011C27.9432 19.6518 25.5518 17.2609 22.6018 17.2609C19.6519 17.2609 17.2604 19.6518 17.2604 22.6011C17.2604 25.5505 19.6519 27.9414 22.6018 27.9414Z" fill="url(#paint3_linear_17_68)"/>
<defs>
<linearGradient id="paint0_linear_17_68" x1="2076.33" y1="3.86064e-05" x2="3956.9" y2="1147.73" gradientUnits="userSpaceOnUse">
<stop stop-color="#FF99FF"/>
<stop offset="1" stop-color="#FF99FF"/>
</linearGradient>
<linearGradient id="paint1_linear_17_68" x1="2328.49" y1="4.0134e-05" x2="1398.88" y2="4801.57" gradientUnits="userSpaceOnUse">
<stop stop-color="#FF99FF"/>
<stop offset="0.3786" stop-color="#FF99FF"/>
<stop offset="1" stop-color="#FF99FF"/>
</linearGradient>
<linearGradient id="paint2_linear_17_68" x1="809.963" y1="-213.722" x2="-399.242" y2="1676.18" gradientUnits="userSpaceOnUse">
<stop stop-color="#FF99FF"/>
<stop offset="0.41473" stop-color="#FF99FF"/>
<stop offset="1" stop-color="#FF99FF"/>
</linearGradient>
<linearGradient id="paint3_linear_17_68" x1="745.058" y1="-363.938" x2="342.605" y2="1244.95" gradientUnits="userSpaceOnUse">
<stop stop-color="#FF99FF"/>
<stop offset="0.51264" stop-color="#FF99FF"/>
<stop offset="1" stop-color="#FF99FF"/>
</linearGradient>
</defs>
</svg>
