<svg width="45" height="45" viewBox="0 0 45 45" fill="none" xmlns="http://www.w3.org/2000/svg">
<path d="M43.0591 0H1.94095C0.873426 0 0 0.872171 0 1.93816V6.64142H45V1.93816C45.0001 0.872171 44.1266 0 43.0591 0ZM30.8299 4.12827H29.0183C28.5735 4.12827 28.2096 3.76487 28.2096 3.32071C28.2096 2.87655 28.5735 2.51314 29.0183 2.51314H30.8299C31.2747 2.51314 31.6386 2.87655 31.6386 3.32071C31.6386 3.76487 31.2747 4.12827 30.8299 4.12827ZM36.2322 4.12827H34.4206C33.9758 4.12827 33.6119 3.76487 33.6119 3.32071C33.6119 2.87655 33.9758 2.51314 34.4206 2.51314H36.2322C36.677 2.51314 37.0409 2.87655 37.0409 3.32071C37.0409 3.76487 36.677 4.12827 36.2322 4.12827ZM41.6345 4.12827H39.8229C39.3781 4.12827 39.0142 3.76487 39.0142 3.32071C39.0142 2.87655 39.3781 2.51314 39.8229 2.51314H41.6345C42.0793 2.51314 42.4432 2.87655 42.4432 3.32071C42.4432 3.76487 42.0793 4.12827 41.6345 4.12827Z" fill="#FF99FF"/>
<path d="M24.2772 32.2804C24.2734 32.2421 24.2679 32.2044 24.2618 32.1669C26.0809 31.839 27.3712 31.0191 27.3712 30.0588C27.3712 29.8508 27.3104 29.6492 27.1965 29.4573C30.1545 27.8105 32.1556 24.6539 32.1556 21.0315C32.1556 15.7061 27.8325 11.3892 22.5 11.3892C17.1676 11.3892 12.8445 15.7061 12.8445 21.0315C12.8445 24.6539 14.8456 27.8105 17.8036 29.4573C17.6897 29.6492 17.6289 29.8508 17.6289 30.0588C17.6289 31.0191 18.9192 31.839 20.7383 32.1669C20.7322 32.2044 20.7267 32.2421 20.7229 32.2804L19.7594 41.9783C19.5987 43.5965 20.8715 45 22.5 45C24.1286 45 25.4014 43.5965 25.2407 41.9783L24.2772 32.2804ZM19.2522 28.3732C16.4333 27.1251 14.4619 24.3037 14.4619 21.0315C14.4619 16.6054 18.0676 13.0043 22.5 13.0043C26.9325 13.0043 30.5381 16.6054 30.5381 21.0315C30.5381 24.3037 28.5668 27.1251 25.7479 28.3732C24.7541 28.8138 23.6556 29.058 22.5 29.058C21.3445 29.058 20.246 28.8138 19.2522 28.3732ZM23.3088 42.262C23.3088 42.708 22.9467 43.0696 22.5 43.0696C22.0534 43.0696 21.6913 42.708 21.6913 42.262V38.6441C21.6913 38.1981 22.0534 37.8365 22.5 37.8365C22.9467 37.8365 23.3088 38.1981 23.3088 38.6441V42.262Z" fill="#FF99FF"/>
<path d="M25.1125 26.8971C25.6133 26.6755 26.0759 26.3951 26.4932 26.0656L25.2329 25.4111C24.4862 25.0229 24.0165 24.2534 24.0139 23.4129C24.8175 22.7882 25.4399 21.7144 25.7207 20.5806C25.7395 20.5838 25.7589 20.5858 25.7776 20.5858C26.0791 20.5858 26.3237 20.1807 26.3256 19.8267C26.457 19.6748 26.5417 19.4487 26.5417 19.2407C26.5417 18.886 26.2959 18.5985 25.9937 18.5985C25.9394 18.5985 25.887 18.6076 25.8378 18.625C25.8378 18.625 25.8378 18.625 25.8378 18.6244H25.8384C25.8384 18.6244 26.1768 18.3401 26.0474 17.161C25.918 15.982 25.2296 15.5298 25.2296 15.5298C25.3105 15.4548 25.35 15.3689 25.3636 15.283C25.0744 15.1395 24.7722 15.0174 24.4604 14.9186C23.519 14.9354 21.985 14.7758 21.1608 14.7648C21.1311 14.7644 21.1026 14.7643 21.0748 14.7643C20.9086 14.7637 20.7757 14.7701 20.6885 14.7868C20.4413 14.834 20.2194 14.9451 20.0188 15.1176C20.0325 15.1118 20.0466 15.1069 20.0603 15.1012C20.0536 15.1068 20.0468 15.1119 20.0402 15.1176C19.6902 15.4186 19.4042 15.9064 19.1571 16.5634C18.8679 17.3335 19.0095 18.2109 19.1008 18.6082C19.0697 18.6024 19.0387 18.5985 19.0063 18.5985C18.7035 18.5985 18.4583 18.886 18.4583 19.2407C18.4583 19.4487 18.5431 19.6748 18.6738 19.8267C18.6763 20.1807 18.9203 20.5858 19.2218 20.5858C19.2554 20.5858 19.2877 20.58 19.3194 20.5703C19.5996 21.708 20.2226 22.7862 21.0288 23.4129C21.0262 24.2534 20.5565 25.0229 19.8099 25.4111L18.5495 26.0656C18.9668 26.3951 19.4288 26.6755 19.9289 26.8971C20.7467 27.2595 21.6188 27.443 22.5214 27.443C23.4239 27.443 24.296 27.2595 25.1125 26.8971Z" fill="#FF99FF"/>
<path d="M0 31.8677C0 32.9337 0.873426 33.8059 1.94095 33.8059H18.9459L18.989 33.3723C17.1999 32.7318 16.1072 31.6031 16.0174 30.2417C13.0365 28.1472 11.227 24.7159 11.227 21.0314C11.227 14.824 16.284 9.77397 22.5 9.77397C28.7159 9.77397 33.773 14.824 33.773 21.0314C33.773 24.7158 31.9634 28.1472 28.9825 30.2417C28.8927 31.6031 27.8 32.7318 26.0109 33.3723L26.054 33.8059H43.059C44.1265 33.8059 44.9999 32.9337 44.9999 31.8677V8.25659H0V31.8677ZM41.755 31.3989H38.9945C38.5478 31.3989 38.1858 31.0374 38.1858 30.5913C38.1858 30.1454 38.5478 29.7838 38.9945 29.7838H41.755C42.2017 29.7838 42.5637 30.1454 42.5637 30.5913C42.5637 31.0374 42.2016 31.3989 41.755 31.3989ZM41.755 18.7392H40.4395C39.9928 18.7392 39.6308 18.3776 39.6308 17.9316C39.6308 17.4856 39.9928 17.124 40.4395 17.124H41.755C42.2017 17.124 42.5637 17.4856 42.5637 17.9316C42.5637 18.3776 42.2016 18.7392 41.755 18.7392ZM40.4394 10.6635H41.7549C42.2016 10.6635 42.5637 11.0251 42.5637 11.4711C42.5637 11.9171 42.2016 12.2787 41.7549 12.2787H40.4394C39.9928 12.2787 39.6307 11.9171 39.6307 11.4711C39.6307 11.0251 39.9928 10.6635 40.4394 10.6635ZM34.6597 10.6635H37.4202C37.8669 10.6635 38.2289 11.0251 38.2289 11.4711C38.2289 11.9171 37.8669 12.2787 37.4202 12.2787H34.6597C34.2131 12.2787 33.851 11.9171 33.851 11.4711C33.851 11.0251 34.2131 10.6635 34.6597 10.6635ZM34.6597 13.8938H40.2885C40.314 13.8938 40.3391 13.8953 40.364 13.8977C40.3889 13.8953 40.414 13.8938 40.4395 13.8938H41.755C42.2017 13.8938 42.5637 14.2554 42.5637 14.7013C42.5637 15.1473 42.2017 15.5089 41.755 15.5089H40.4395C40.414 15.5089 40.3889 15.5074 40.364 15.5051C40.3391 15.5074 40.314 15.5089 40.2885 15.5089H34.6597C34.2131 15.5089 33.851 15.1473 33.851 14.7013C33.851 14.2554 34.2131 13.8938 34.6597 13.8938ZM34.6597 29.7838H35.9753C36.4219 29.7838 36.784 30.1454 36.784 30.5913C36.784 31.0374 36.4219 31.3989 35.9753 31.3989H34.6597C34.2131 31.3989 33.851 31.0374 33.851 30.5913C33.851 30.1454 34.2131 29.7838 34.6597 29.7838ZM10.3403 31.3989H9.02482C8.57821 31.3989 8.21609 31.0374 8.21609 30.5913C8.21609 30.1454 8.57821 29.7838 9.02482 29.7838H10.3403C10.787 29.7838 11.1491 30.1454 11.1491 30.5913C11.1491 31.0374 10.787 31.3989 10.3403 31.3989ZM7.57985 10.6635H10.3403C10.787 10.6635 11.1491 11.0251 11.1491 11.4711C11.1491 11.9171 10.787 12.2787 10.3403 12.2787H7.57985C7.13317 12.2787 6.77112 11.9171 6.77112 11.4711C6.77112 11.0251 7.13324 10.6635 7.57985 10.6635ZM3.24507 10.6635H4.56058C5.00719 10.6635 5.3693 11.0251 5.3693 11.4711C5.3693 11.9171 5.00725 12.2787 4.56058 12.2787H3.24507C2.79839 12.2787 2.43634 11.9171 2.43634 11.4711C2.43634 11.0251 2.79846 10.6635 3.24507 10.6635ZM3.24507 13.8938H4.56058C4.58607 13.8938 4.61117 13.8953 4.63608 13.8977C4.66099 13.8953 4.68609 13.8938 4.71158 13.8938H10.3403C10.787 13.8938 11.1491 14.2554 11.1491 14.7013C11.1491 15.1473 10.787 15.5089 10.3403 15.5089H4.71158C4.68609 15.5089 4.66099 15.5074 4.63608 15.5051C4.61117 15.5074 4.58607 15.5089 4.56058 15.5089H3.24507C2.79839 15.5089 2.43634 15.1473 2.43634 14.7013C2.43634 14.2554 2.79846 13.8938 3.24507 13.8938ZM3.24507 17.124H4.56058C5.00719 17.124 5.3693 17.4856 5.3693 17.9316C5.3693 18.3776 5.00725 18.7392 4.56058 18.7392H3.24507C2.79839 18.7392 2.43634 18.3776 2.43634 17.9316C2.43634 17.4856 2.79846 17.124 3.24507 17.124ZM3.24507 29.7838H6.00555C6.45222 29.7838 6.81427 30.1454 6.81427 30.5913C6.81427 31.0374 6.45222 31.3989 6.00555 31.3989H3.24507C2.79839 31.3989 2.43634 31.0374 2.43634 30.5913C2.43634 30.1454 2.79846 29.7838 3.24507 29.7838Z" fill="#FF99FF"/>
</svg>
