<svg width="60" height="60" viewBox="0 0 60 60" fill="none" xmlns="http://www.w3.org/2000/svg">
<rect width="60" height="60" rx="30" fill="#544D54"/>
<path d="M40.8473 22.3017L30.5801 40.6611C30.5319 40.7475 30.4616 40.8194 30.3764 40.8697C30.2912 40.9199 30.1942 40.9466 30.0953 40.947C29.9964 40.9474 29.8992 40.9215 29.8136 40.8719C29.728 40.8224 29.6572 40.751 29.6082 40.665L19.1379 22.3033C19.0853 22.2112 19.06 22.1059 19.0651 21.9999C19.0702 21.894 19.1053 21.7916 19.1665 21.7049C19.2277 21.6182 19.3124 21.5508 19.4105 21.5105C19.5087 21.4702 19.6163 21.4588 19.7207 21.4775L29.9989 23.315C30.0642 23.327 30.1312 23.327 30.1965 23.315L40.2598 21.4806C40.3638 21.4616 40.4711 21.4726 40.5692 21.5122C40.6672 21.5519 40.752 21.6186 40.8136 21.7046C40.8752 21.7906 40.911 21.8923 40.917 21.9979C40.923 22.1035 40.8988 22.2094 40.8473 22.3017Z" fill="url(#paint0_linear_56_363)"/>
<path d="M34.894 19.0681L27.2972 20.5564C27.2365 20.5686 27.1816 20.6005 27.141 20.6471C27.1003 20.6937 27.0761 20.7524 27.0722 20.8142L26.605 28.7079C26.6024 28.7512 26.61 28.7945 26.6271 28.8344C26.6442 28.8743 26.6703 28.9096 26.7035 28.9376C26.7366 28.9656 26.7758 28.9855 26.818 28.9956C26.8602 29.0058 26.9041 29.006 26.9464 28.9962L29.0612 28.5079C29.1068 28.4974 29.1543 28.4985 29.1993 28.5111C29.2443 28.5237 29.2855 28.5475 29.3189 28.5802C29.3524 28.6128 29.3771 28.6534 29.3907 28.6981C29.4044 28.7428 29.4066 28.7903 29.3972 28.8361L28.769 31.9134C28.7594 31.9608 28.7621 32.0099 28.7771 32.0558C28.7921 32.1018 28.8188 32.1431 28.8546 32.1756C28.8904 32.2082 28.934 32.2308 28.9812 32.2414C29.0284 32.252 29.0775 32.2502 29.1237 32.2361L30.43 31.8392C30.4763 31.825 30.5255 31.8231 30.5728 31.8338C30.6201 31.8444 30.6637 31.8672 30.6995 31.8998C30.7353 31.9324 30.762 31.9738 30.7769 32.0199C30.7919 32.066 30.7945 32.1152 30.7847 32.1626L29.7855 36.9962C29.723 37.2986 30.1253 37.4634 30.2933 37.2048L30.405 37.0314L36.5964 24.6759C36.6196 24.6293 36.6294 24.5772 36.6246 24.5254C36.6197 24.4736 36.6005 24.4242 36.569 24.3827C36.5376 24.3413 36.4952 24.3095 36.4466 24.2909C36.398 24.2722 36.3451 24.2676 36.294 24.2775L34.1167 24.697C34.0698 24.706 34.0215 24.7028 33.9762 24.6877C33.9309 24.6726 33.8902 24.6462 33.8581 24.6109C33.826 24.5756 33.8034 24.5327 33.7926 24.4862C33.7818 24.4397 33.7831 24.3913 33.7964 24.3454L35.2167 19.4189C35.2301 19.3729 35.2314 19.3242 35.2205 19.2776C35.2097 19.231 35.187 19.1879 35.1546 19.1526C35.1223 19.1173 35.0814 19.0909 35.0359 19.0759C34.9904 19.061 34.9418 19.058 34.8948 19.0673" fill="url(#paint1_linear_56_363)"/>
<defs>
<linearGradient id="paint0_linear_56_363" x1="18.8821" y1="20.8212" x2="31.6596" y2="38.174" gradientUnits="userSpaceOnUse">
<stop stop-color="#41D1FF"/>
<stop offset="1" stop-color="#BD34FE"/>
</linearGradient>
<linearGradient id="paint1_linear_56_363" x1="29.4081" y1="19.4718" x2="31.7195" y2="35.3277" gradientUnits="userSpaceOnUse">
<stop stop-color="#FFEA83"/>
<stop offset="0.083" stop-color="#FFDD35"/>
<stop offset="1" stop-color="#FFA800"/>
</linearGradient>
</defs>
</svg>
